<?xml version="1.0" encoding="UTF-8" standalone="no"?>
<!-- Created with Inkscape (http://www.inkscape.org/) -->

<svg
   xmlns:dc="http://purl.org/dc/elements/1.1/"
   xmlns:cc="http://creativecommons.org/ns#"
   xmlns:rdf="http://www.w3.org/1999/02/22-rdf-syntax-ns#"
   xmlns:svg="http://www.w3.org/2000/svg"
   xmlns="http://www.w3.org/2000/svg"
   xmlns:sodipodi="http://sodipodi.sourceforge.net/DTD/sodipodi-0.dtd"
   xmlns:inkscape="http://www.inkscape.org/namespaces/inkscape"
   width="779.52759"
   height="389.76379"
   id="svg2"
   inkscape:label="Pozadí"
   version="1.1"
   inkscape:version="0.48.4 r9939"
   sodipodi:docname="Header.svg"
   inkscape:export-filename="/home/roman/Dokumenty/Projects/TelescopeTools/media/Header.png"
   inkscape:export-xdpi="130"
   inkscape:export-ydpi="130">
  <defs
     id="defs3" />
  <sodipodi:namedview
     id="base"
     pagecolor="#ffffff"
     bordercolor="#666666"
     borderopacity="1.0"
     inkscape:pageopacity="0.0"
     inkscape:pageshadow="2"
     inkscape:zoom="1.6125413"
     inkscape:cx="404.28571"
     inkscape:cy="190.60151"
     inkscape:document-units="px"
     inkscape:current-layer="layer1"
     showgrid="false"
     inkscape:window-width="1547"
     inkscape:window-height="879"
     inkscape:window-x="53"
     inkscape:window-y="21"
     inkscape:window-maximized="1" />
  <metadata
     id="metadata6">
    <rdf:RDF>
      <cc:Work
         rdf:about="">
        <dc:format>image/svg+xml</dc:format>
        <dc:type
           rdf:resource="http://purl.org/dc/dcmitype/StillImage" />
        <dc:title></dc:title>
      </cc:Work>
    </rdf:RDF>
  </metadata>
  <g
     inkscape:label="Vrstva 1"
     inkscape:groupmode="layer"
     id="layer1"
     transform="translate(0,-662.59837)">
    <rect
       style="fill:#68003b;fill-opacity:1;stroke:none"
       id="rect2984"
       width="226.3508"
       height="27.286123"
       x="691.66339"
       y="599.15186"
       transform="matrix(0.93045214,0.36641345,-0.36641345,0.93045214,0,0)" />
    <path
       style="fill:none;stroke:#000000;stroke-width:1px;stroke-linecap:butt;stroke-linejoin:miter;stroke-opacity:1"
       d="m 504.79329,203.1019 c -0.62014,3.1007 2.48055,43.40974 2.48055,43.40974 l -71.93614,107.90422 10.54237,4.96111 57.0528,-95.50143 1.24028,76.27712 6.20139,-2.48056 -1.86042,-79.37781 62.01392,87.43962 4.34097,-3.10069 c 0,0 -65.11461,-97.98199 -63.87433,-100.46255 1.24028,-2.48056 -0.62014,-35.96807 -0.62014,-35.96807 z"
       id="path2986"
       inkscape:connector-curvature="0"
       transform="translate(0,662.59837)" />
    <path
       style="fill:none;stroke:#000000;stroke-width:1px;stroke-linecap:butt;stroke-linejoin:miter;stroke-opacity:1"
       d="m 36.588211,85.27546 c 0.378371,-1.409525 -0.283778,-2.922082 0,-4.340974 0.09065,-0.453249 0.554771,-0.7827 0.620139,-1.240279 0.146169,-1.023177 -0.128198,-2.075112 0,-3.100695 0.08108,-0.648637 0.512675,-1.215628 0.62014,-1.860418 0.10195,-0.611702 0,-1.240278 0,-1.860418 0.206713,-1.240278 0.373545,-2.487866 0.620139,-3.720835 0.577194,-2.885969 1.4527,-5.940997 2.480556,-8.681948 0.162298,-0.432794 0.473971,-0.801774 0.62014,-1.240278 1.446071,-4.338214 -0.557614,-0.884595 2.480556,-6.201392 0.290079,-0.507638 0.978805,-0.717331 1.240279,-1.240278 0.09245,-0.18489 -0.146169,-0.473971 0,-0.62014 0.326842,-0.326842 0.855684,-0.363743 1.240278,-0.620139 0.243239,-0.162159 0.376901,-0.45798 0.620139,-0.620139 0.912476,-0.608317 2.092209,-0.904116 3.100696,-1.240278 0.620139,-0.206713 1.213303,-0.527695 1.860418,-0.620139 0.818541,-0.116935 1.653704,0 2.480556,0 1.446992,0 2.893983,0 4.340974,0 0.62014,0 1.245068,-0.07692 1.860418,0 1.045895,0.130736 2.057255,0.471076 3.100696,0.620139 1.432448,0.204635 2.908526,-0.204636 4.340974,0 0.457579,0.06537 0.78703,0.529489 1.240278,0.620139 0.608097,0.121619 1.240279,0 1.860418,0 1.033565,0.206713 2.078133,0.364498 3.100696,0.620139 3.347178,0.836795 0.534516,0.277961 3.100696,1.240278 0.85899,0.322122 3.718339,1.031902 4.961113,1.860418 0.243239,0.162159 0.369463,0.469733 0.620139,0.620139 0.792709,0.475625 1.653705,0.826852 2.480557,1.240278 0.413426,0.206714 0.870499,0.342805 1.240278,0.62014 0.701608,0.526205 1.240279,1.240278 1.860418,1.860417 0.413426,0.413426 0.826852,0.826852 1.240278,1.240278 0.413426,0.413427 0.939467,0.738926 1.240278,1.240279 0.336318,0.560529 0.273688,1.306094 0.62014,1.860417 0.701511,1.122419 1.711224,2.023631 2.480556,3.100696 0.268663,0.376128 0.375161,0.848313 0.620139,1.240279 0.790032,1.26405 1.756644,2.41779 2.480557,3.720835 0.317457,0.571422 0.327803,1.275744 0.620139,1.860417 0.333315,0.66663 0.826853,1.240278 1.240279,1.860418 0.826852,1.240278 1.614142,2.50786 2.480552,3.720835 0.16992,0.237884 0.48941,0.358665 0.62014,0.620139 0.0924,0.18489 -0.14616,0.473971 0,0.620139 0.52702,0.527017 1.24028,0.826852 1.86042,1.240278 6.85721,4.571471 -1.66657,-0.999944 3.1007,1.860418 2.4597,1.47582 1.87405,1.557163 4.96111,3.100696 0.58467,0.292336 1.27575,0.327803 1.86042,0.620139 0.66663,0.333315 1.16256,0.978581 1.86042,1.240278 0.98692,0.370096 2.07813,0.364499 3.10069,0.620139 4.01754,1.004385 -0.44744,0.65154 6.20139,1.860418 1.62703,0.295824 3.32403,-0.233869 4.96112,0 0.64711,0.09244 1.20673,0.620139 1.86041,0.620139 0.8523,0 1.63683,-0.499606 2.48056,-0.620139 0.61391,-0.0877 1.24872,0.10195 1.86042,0 0.64479,-0.107465 1.2133,-0.527694 1.86042,-0.620139 0.81854,-0.116935 1.67839,0.200541 2.48055,0 0.89685,-0.224212 1.63086,-0.87612 2.48056,-1.240279 6.33823,-2.716385 -2.9828,1.863821 3.72083,-1.860417 1.90017,-1.055649 3.90394,-1.702931 5.58126,-3.100696 1.79663,-1.497194 3.18544,-3.439113 4.96111,-4.961113 0.35095,-0.300812 0.8705,-0.342805 1.24028,-0.620139 0.46774,-0.350804 0.82685,-0.826853 1.24028,-1.240279 1.24028,-1.240278 2.48055,-2.480557 3.72083,-3.720835 1.65371,-1.653704 3.30741,-3.307409 4.96112,-4.961113 1.24027,-1.240279 2.48055,-2.480557 3.72083,-3.720835 0.41343,-0.413426 0.87504,-0.783726 1.24028,-1.240279 0.46559,-0.581993 0.71326,-1.3334 1.24028,-1.860417 0.52701,-0.527017 1.26416,-0.79309 1.86041,-1.240279 0.70161,-0.526205 1.24028,-1.240278 1.86042,-1.860417 1.44699,-1.446991 2.89398,-2.893983 4.34098,-4.340974 0.82685,-0.826852 1.58224,-1.73196 2.48055,-2.480557 0.35509,-0.295909 0.8705,-0.342804 1.24028,-0.620139 0.46774,-0.350804 0.78373,-0.875036 1.24028,-1.240278 2.28573,-1.828589 1.16853,-0.70112 3.1007,-1.860418 1.48451,-0.890711 3.95257,-2.635359 5.58125,-3.100696 0.59628,-0.170365 1.24028,0 1.86042,0 0.41342,0 0.82685,0 1.24027,0 1.03357,0 2.06713,0 3.1007,0 0.62014,0 1.24872,-0.10195 1.86042,0 0.64479,0.107465 1.2343,0.432305 1.86041,0.620139 1.44143,0.432428 2.89955,0.807851 4.34098,1.240279 1.25223,0.375669 2.4686,0.864609 3.72083,1.240278 9.27163,2.781487 0.51212,-0.223477 6.82153,2.480557 0.60084,0.257498 1.27575,0.327802 1.86042,0.620139 0.66663,0.333315 1.24028,0.826852 1.86042,1.240278 0.82685,0.413426 1.63897,0.857739 2.48056,1.240279 5.86242,2.664736 2.9851,0.922866 8.68194,4.340974 1.25892,0.75535 3.29088,2.260613 4.34098,3.100696 0.22828,0.182621 0.38627,0.444737 0.62014,0.620139 0.59625,0.447189 1.3334,0.713261 1.86042,1.240278 0.52701,0.527017 0.77468,1.278425 1.24027,1.860418 0.36525,0.456552 0.82686,0.826852 1.24028,1.240278 1.03357,1.033565 2.06713,2.067131 3.1007,3.100696 1.44699,1.446991 2.89398,2.893983 4.34097,4.340974 0.41343,0.413426 0.78373,0.875036 1.24028,1.240278 1.16399,0.931189 2.52833,1.58618 3.72084,2.480557 0.91272,0.684544 3.55913,3.019845 4.96111,3.720835 0.58467,0.292337 1.25349,0.377367 1.86042,0.620139 1.46168,0.584673 2.93289,1.156379 4.34097,1.860418 0.66663,0.333315 1.19379,0.906963 1.86042,1.240278 1.30404,0.652021 4.00222,1.663039 5.58125,1.860418 0.82047,0.102558 1.66009,-0.102559 2.48056,0 1.69143,0.211429 3.27364,0.999211 4.96111,1.240278 0.61391,0.0877 1.24028,0 1.86042,0 1.6537,0 3.30741,0 4.96111,0 0.62014,0 1.24336,0.06171 1.86042,0 1.45443,-0.145443 2.88655,-0.474696 4.34097,-0.620139 0.61707,-0.06171 1.24651,0.0877 1.86042,0 1.93866,-0.276951 2.574,-0.735428 4.34098,-1.240278 0.8195,-0.234145 1.68921,-0.303603 2.48055,-0.62014 0.27143,-0.108571 0.38627,-0.444737 0.62014,-0.620139 0.62014,-0.413426 1.24028,-0.826852 1.86042,-1.240278 0.41343,-0.413426 0.77254,-0.889475 1.24028,-1.240278 0.36978,-0.277335 0.93946,-0.269193 1.24028,-0.62014 0.97008,-1.13177 1.6537,-2.480556 2.48055,-3.720835 0.41343,-0.620139 0.85682,-1.221315 1.24028,-1.860417 0.95125,-1.585417 1.65371,-3.307409 2.48056,-4.961114 0.20671,-0.413426 0.44847,-0.811113 0.62014,-1.240278 0.24277,-0.60693 0.35465,-1.263073 0.62014,-1.860417 1.68501,-3.791286 1.6424,-2.647728 2.48055,-5.581253 0.23415,-0.819507 0.45299,-1.644808 0.62014,-2.480557 0.0405,-0.202699 -0.0654,-0.424034 0,-0.620139 0.14617,-0.438504 0.44848,-0.811114 0.62014,-1.240278 0.48555,-1.213861 0.75473,-2.506974 1.24028,-3.720835 0.17167,-0.429165 0.36374,-0.855685 0.62014,-1.240279 0.16216,-0.243238 0.52769,-0.342804 0.62014,-0.620139 0.13073,-0.39221 -0.13074,-0.848068 0,-1.240278 0.0924,-0.277335 0.41342,-0.413426 0.62014,-0.620139 0.20671,-0.413426 0.47397,-0.801774 0.62014,-1.240279 0.13073,-0.39221 -0.18489,-0.870498 0,-1.240278 0.13073,-0.261474 0.4894,-0.358666 0.62014,-0.620139 0.0924,-0.18489 -0.0925,-0.43525 0,-0.620139 0.13073,-0.261474 0.4894,-0.358666 0.62013,-0.620139 0.18489,-0.36978 -0.41342,-1.240279 0,-1.240279 0.20672,0 0,0.413426 0,0.620139"
       id="path2988"
       inkscape:connector-curvature="0"
       transform="translate(0,662.59837)" />
    <path
       sodipodi:type="star"
       style="fill:#68003b;fill-opacity:1;stroke:none"
       id="path2990"
       sodipodi:sides="5"
       sodipodi:cx="27.286124"
       sodipodi:cy="80.314347"
       sodipodi:r1="22.470955"
       sodipodi:r2="11.235477"
       sodipodi:arg1="0.68767126"
       sodipodi:arg2="1.3159898"
       inkscape:flatsided="false"
       inkscape:rounded="0"
       inkscape:randomized="0"
       d="M 44.65002,94.577547 30.118117,91.187054 19.086752,101.23596 17.820698,86.367584 4.8547365,78.981417 18.604175,73.182746 l 3.01796,-14.613814 9.763674,11.284605 14.831164,-1.645666 -7.715156,12.77294 z"
       transform="translate(0,662.59837)"
       inkscape:transform-center-x="1.7502687"
       inkscape:transform-center-y="-0.41189787" />
    <path
       sodipodi:type="star"
       style="fill:#68003b;fill-opacity:1;stroke:none"
       id="path2992"
       sodipodi:sides="5"
       sodipodi:cx="123.4077"
       sodipodi:cy="49.927527"
       sodipodi:r1="11.041264"
       sodipodi:r2="5.5206318"
       sodipodi:arg1="0.66596924"
       sodipodi:arg2="1.2942878"
       inkscape:flatsided="false"
       inkscape:rounded="0"
       inkscape:randomized="0"
       d="m 132.08965,56.749059 -7.17483,-1.510603 -5.31191,5.054065 -0.78048,-7.290466 -6.44817,-3.49014 6.69247,-2.995152 1.32672,-7.21109 4.91665,5.439359 7.26813,-0.966558 -3.65381,6.356861 z"
       transform="translate(0,662.59837)"
       inkscape:transform-center-x="0.93145403"
       inkscape:transform-center-y="-0.12843154" />
    <path
       sodipodi:type="star"
       style="fill:#68003b;fill-opacity:1;stroke:none"
       id="path2994"
       sodipodi:sides="5"
       sodipodi:cx="132.08964"
       sodipodi:cy="100.77894"
       sodipodi:r1="22.2041"
       sodipodi:r2="11.10205"
       sodipodi:arg1="0.94405343"
       sodipodi:arg2="1.572372"
       inkscape:flatsided="false"
       inkscape:rounded="0"
       inkscape:randomized="0"
       d="m 145.11257,118.76297 -13.04042,-6.882 -13.06203,6.84088 2.51546,-14.52883 -10.54245,-10.308791 14.59505,-2.097309 6.54645,-13.212054 6.50478,13.232619 14.58837,2.143291 -10.57488,10.275514 z"
       transform="translate(0,662.59837)"
       inkscape:transform-center-x="-0.01081109"
       inkscape:transform-center-y="-2.1100183" />
    <path
       sodipodi:type="star"
       style="fill:#68003b;fill-opacity:1;stroke:none"
       id="path2996"
       sodipodi:sides="5"
       sodipodi:cx="185.42161"
       sodipodi:cy="114.422"
       sodipodi:r1="27.795797"
       sodipodi:r2="13.897899"
       sodipodi:arg1="0.89605538"
       sodipodi:arg2="1.5243739"
       inkscape:flatsided="false"
       inkscape:rounded="0"
       inkscape:randomized="0"
       d="m 202.78551,136.12687 -16.71895,-7.82195 -15.92176,9.3383 2.27267,-18.31779 -13.80135,-12.2568 18.12355,-3.49907 7.39206,-16.913415 8.9283,16.155245 18.36988,1.80373 -12.60555,13.48356 z"
       transform="translate(0,662.59837)"
       inkscape:transform-center-x="0.39859624"
       inkscape:transform-center-y="-2.2723154" />
    <path
       sodipodi:type="star"
       style="fill:#68003b;fill-opacity:1;stroke:none"
       id="path2998"
       sodipodi:sides="5"
       sodipodi:cx="167.43758"
       sodipodi:cy="167.13383"
       sodipodi:r1="13.866733"
       sodipodi:r2="6.933367"
       sodipodi:arg1="1.1071487"
       sodipodi:arg2="1.7354672"
       inkscape:flatsided="false"
       inkscape:rounded="0"
       inkscape:randomized="0"
       d="m 173.63897,179.53662 -7.33796,-5.56321 -8.74285,2.89097 3.02337,-8.69794 -5.45116,-7.42158 9.20651,0.18758 5.37384,-7.47775 2.66656,8.81387 8.77238,2.80007 -7.55848,5.25969 z"
       transform="translate(0,662.59837)"
       inkscape:transform-center-x="-0.70243948"
       inkscape:transform-center-y="-0.63818287" />
    <path
       sodipodi:type="star"
       style="fill:#68003b;fill-opacity:1;stroke:none"
       id="path3000"
       sodipodi:sides="5"
       sodipodi:cx="81.238232"
       sodipodi:cy="157.83174"
       sodipodi:r1="8.9437743"
       sodipodi:r2="4.4718875"
       sodipodi:arg1="0.98279372"
       sodipodi:arg2="1.6111123"
       inkscape:flatsided="false"
       inkscape:rounded="0"
       inkscape:randomized="0"
       d="M 86.199349,165.27341 81.057996,162.3 l -5.364141,2.54964 1.239121,-5.80855 -4.082469,-4.31372 5.907172,-0.61646 2.841035,-5.21568 2.411712,5.42756 5.838327,1.09025 -4.416653,3.97089 z"
       transform="translate(0,662.59837)"
       inkscape:transform-center-x="-0.1113941"
       inkscape:transform-center-y="-0.74741838" />
    <path
       sodipodi:type="star"
       style="fill:#68003b;fill-opacity:1;stroke:none"
       id="path3002"
       sodipodi:sides="5"
       sodipodi:cx="188.52231"
       sodipodi:cy="18.300429"
       sodipodi:r1="14.63581"
       sodipodi:r2="7.3179056"
       sodipodi:arg1="0.63502674"
       sodipodi:arg2="1.2633453"
       inkscape:flatsided="false"
       inkscape:rounded="0"
       inkscape:randomized="0"
       d="m 200.30495,26.982377 -9.56802,-1.707194 -6.83061,6.914075 -1.33304,-9.627284 -8.68645,-4.359725 8.74416,-4.242795 1.46208,-9.6085339 6.73723,7.0050929 9.59007,-1.5786755 -4.58032,8.5721805 z"
       transform="translate(0,662.59837)"
       inkscape:transform-center-x="1.3687099"
       inkscape:transform-center-y="-0.030339064" />
    <path
       sodipodi:type="star"
       style="fill:#68003b;fill-opacity:1;stroke:none"
       id="path3004"
       sodipodi:sides="5"
       sodipodi:cx="219.52927"
       sodipodi:cy="62.330311"
       sodipodi:r1="19.854141"
       sodipodi:r2="9.9270712"
       sodipodi:arg1="0.89605538"
       sodipodi:arg2="1.5243739"
       inkscape:flatsided="false"
       inkscape:rounded="0"
       inkscape:randomized="0"
       d="m 231.93205,77.83379 -11.94211,-5.587102 -11.37269,6.67021 1.62334,-13.084132 -9.8581,-8.75486 12.94538,-2.499336 5.28005,-12.081011 6.37735,11.539457 13.12135,1.288385 -9.00396,9.631112 z"
       transform="translate(0,662.59837)"
       inkscape:transform-center-x="0.2847116"
       inkscape:transform-center-y="-1.6230824" />
    <path
       sodipodi:type="star"
       style="fill:#68003b;fill-opacity:1;stroke:none"
       id="path3006"
       sodipodi:sides="5"
       sodipodi:cx="251.7765"
       sodipodi:cy="108.22061"
       sodipodi:r1="12.90426"
       sodipodi:r2="6.4521306"
       sodipodi:arg1="0.95613337"
       sodipodi:arg2="1.5844519"
       inkscape:flatsided="false"
       inkscape:rounded="0"
       inkscape:randomized="0"
       d="m 259.21817,118.76298 -7.52977,-4.09084 -7.63868,3.88369 1.56379,-8.42538 -6.05409,-6.06469 8.49625,-1.11633 3.89704,-7.631875 3.68719,7.735445 8.46259,1.34793 -6.21744,5.89711 z"
       transform="translate(0,662.59837)"
       inkscape:transform-center-x="-0.054451781"
       inkscape:transform-center-y="-1.1803456" />
    <path
       sodipodi:type="star"
       style="fill:#68003b;fill-opacity:1;stroke:none"
       id="path3008"
       sodipodi:sides="5"
       sodipodi:cx="262.31887"
       sodipodi:cy="144.80882"
       sodipodi:r1="4.16002"
       sodipodi:r2="2.0800102"
       sodipodi:arg1="1.1071487"
       sodipodi:arg2="1.7354672"
       inkscape:flatsided="false"
       inkscape:rounded="0"
       inkscape:randomized="0"
       d="m 264.1793,148.52966 -2.20139,-1.66896 -2.62286,0.86729 0.90702,-2.60939 -1.63535,-2.22647 2.76195,0.0563 1.61215,-2.24333 0.79997,2.64416 2.63171,0.84002 -2.26754,1.57791 z"
       transform="translate(0,662.59837)"
       inkscape:transform-center-x="-0.21073184"
       inkscape:transform-center-y="-0.19145486" />
    <path
       sodipodi:type="star"
       style="fill:#68003b;fill-opacity:1;stroke:none"
       id="path3010"
       sodipodi:sides="5"
       sodipodi:cx="243.09456"
       sodipodi:cy="151.63035"
       sodipodi:r1="3.9221045"
       sodipodi:r2="1.9610524"
       sodipodi:arg1="1.2490458"
       sodipodi:arg2="1.8773643"
       inkscape:flatsided="false"
       inkscape:rounded="0"
       inkscape:randomized="0"
       d="m 244.33484,155.35119 -1.8321,-1.85122 -2.56364,0.45976 1.19446,-2.31449 -1.22946,-2.29609 2.57032,0.42079 1.80378,-1.87882 0.39409,2.57455 2.34426,1.13491 -2.32676,1.17038 z"
       transform="translate(0,662.59837)"
       inkscape:transform-center-x="-0.36576664"
       inkscape:transform-center-y="-0.0092005308" />
    <path
       sodipodi:type="star"
       style="fill:#68003b;fill-opacity:1;stroke:none"
       id="path3012"
       sodipodi:sides="5"
       sodipodi:cx="283.4036"
       sodipodi:cy="149.76993"
       sodipodi:r1="13.18434"
       sodipodi:r2="6.5921703"
       sodipodi:arg1="0.85196633"
       sodipodi:arg2="1.4802849"
       inkscape:flatsided="false"
       inkscape:rounded="0"
       inkscape:randomized="0"
       d="m 292.08554,159.69215 -8.08609,-3.35704 -7.34958,4.75798 0.69399,-8.72772 -6.79625,-5.51957 8.51501,-2.03699 3.14927,-8.16925 4.56857,7.46879 8.7426,0.47069 -5.69147,6.65295 z"
       transform="translate(0,662.59837)"
       inkscape:transform-center-x="0.36825718"
       inkscape:transform-center-y="-0.9036055" />
    <path
       sodipodi:type="star"
       style="fill:#68003b;fill-opacity:1;stroke:none"
       id="path3014"
       sodipodi:sides="5"
       sodipodi:cx="154.41465"
       sodipodi:cy="40.0053"
       sodipodi:r1="3.9708282"
       sodipodi:r2="1.9854142"
       sodipodi:arg1="0.67474094"
       sodipodi:arg2="1.3030595"
       inkscape:flatsided="false"
       inkscape:rounded="0"
       inkscape:randomized="0"
       d="m 157.51535,42.485855 -2.57545,-0.565878 -1.92622,1.800793 -0.25768,-2.62427 -2.30789,-1.275471 2.4162,-1.056009 0.49987,-2.589077 1.75097,1.97162 2.61683,-0.324667 -1.33405,2.274537 z"
       transform="translate(0,662.59837)"
       inkscape:transform-center-x="0.32461648"
       inkscape:transform-center-y="-0.05694232" />
    <path
       sodipodi:type="star"
       style="fill:#68003b;fill-opacity:1;stroke:none"
       id="path3016"
       sodipodi:sides="5"
       sodipodi:cx="99.222268"
       sodipodi:cy="14.579594"
       sodipodi:r1="6.5921698"
       sodipodi:r2="3.2960851"
       sodipodi:arg1="0.85196633"
       sodipodi:arg2="1.4802849"
       inkscape:flatsided="false"
       inkscape:rounded="0"
       inkscape:randomized="0"
       d="m 103.56324,19.540707 -4.043047,-1.67852 -3.67479,2.378987 0.346997,-4.363859 -3.398124,-2.759786 4.257504,-1.018492 1.574635,-4.0846289 2.284285,3.7343949 4.3713,0.235347 -2.84574,3.326476 z"
       transform="translate(0,662.59837)"
       inkscape:transform-center-x="0.18412859"
       inkscape:transform-center-y="-0.45180275" />
    <path
       sodipodi:type="star"
       style="fill:#68003b;fill-opacity:1;stroke:none"
       id="path3018"
       sodipodi:sides="5"
       sodipodi:cx="78.757675"
       sodipodi:cy="84.655321"
       sodipodi:r1="17.758083"
       sodipodi:r2="8.8790423"
       sodipodi:arg1="1.359703"
       sodipodi:arg2="1.9880215"
       inkscape:flatsided="false"
       inkscape:rounded="0"
       inkscape:randomized="0"
       d="m 82.47851,102.01922 -7.318847,-9.24653 -11.766234,0.787093 6.532321,-9.817971 -4.384536,-10.947128 11.356043,3.178686 9.056442,-7.55279 0.4861,11.782507 9.981725,6.279247 -11.055617,4.103303 z"
       transform="translate(0,662.59837)"
       inkscape:transform-center-x="-1.1498013"
       inkscape:transform-center-y="0.56457862" />
    <path
       sodipodi:type="star"
       style="fill:#68003b;fill-opacity:1;stroke:none"
       id="path3020"
       sodipodi:sides="5"
       sodipodi:cx="68.215309"
       sodipodi:cy="118.76298"
       sodipodi:r1="8.0618093"
       sodipodi:r2="4.030905"
       sodipodi:arg1="1.5707963"
       sodipodi:arg2="2.1991149"
       inkscape:flatsided="false"
       inkscape:rounded="0"
       inkscape:randomized="0"
       d="m 68.215309,126.82479 -2.369306,-4.80074 -5.29793,-0.76984 3.833618,-3.73685 -0.904995,-5.27652 4.738613,2.49123 4.738613,-2.49123 -0.904995,5.27652 3.833619,3.73685 -5.297931,0.76984 z"
       transform="translate(0,662.59837)"
       inkscape:transform-center-y="0.76983428" />
    <path
       sodipodi:type="star"
       style="fill:#68003b;fill-opacity:1;stroke:none"
       id="path3022"
       sodipodi:sides="5"
       sodipodi:cx="351.61891"
       sodipodi:cy="80.934486"
       sodipodi:r1="13.657149"
       sodipodi:r2="6.8285749"
       sodipodi:arg1="0.88187194"
       sodipodi:arg2="1.5101905"
       inkscape:flatsided="false"
       inkscape:rounded="0"
       inkscape:randomized="0"
       d="m 360.30085,91.476853 -8.26836,-3.726329 -7.75711,4.698757 0.98889,-9.015168 -6.86587,-5.925459 8.87952,-1.845351 3.51378,-8.360892 4.49896,7.874678 9.03749,0.758144 -6.09901,6.71217 z"
       transform="translate(0,662.59837)"
       inkscape:transform-center-x="0.25561781"
       inkscape:transform-center-y="-1.0586403" />
    <path
       sodipodi:type="star"
       style="fill:#68003b;fill-opacity:1;stroke:none"
       id="path3024"
       sodipodi:sides="5"
       sodipodi:cx="272.2411"
       sodipodi:cy="20.160847"
       sodipodi:r1="28.064295"
       sodipodi:r2="14.032148"
       sodipodi:arg1="0.78539816"
       sodipodi:arg2="1.4137167"
       inkscape:flatsided="false"
       inkscape:rounded="0"
       inkscape:randomized="0"
       d="M 292.08554,40.0053 274.4362,34.020236 259.50017,45.166317 259.73835,26.531309 244.52231,15.770624 262.31886,10.238619 267.85087,-7.5579301 278.61155,7.658111 297.24656,7.4199234 286.10048,22.355958 z"
       transform="translate(0,662.59837)"
       inkscape:transform-center-x="1.3566535"
       inkscape:transform-center-y="-1.3566535" />
    <path
       sodipodi:type="star"
       style="fill:#68003b;fill-opacity:1;stroke:none"
       id="path3026"
       sodipodi:sides="5"
       sodipodi:cx="316.27098"
       sodipodi:cy="79.074068"
       sodipodi:r1="21.916459"
       sodipodi:r2="10.95823"
       sodipodi:arg1="1.1324598"
       sodipodi:arg2="1.7607783"
       inkscape:flatsided="false"
       inkscape:rounded="0"
       inkscape:randomized="0"
       d="m 325.57305,98.918519 -11.37145,-9.083387 -13.92933,4.218018 5.12484,-13.621815 -8.31597,-11.944139 14.53878,0.664643 8.78978,-11.599902 3.86061,14.032587 13.74835,4.775005 -12.15278,8.007973 z"
       transform="translate(0,662.59837)"
       inkscape:transform-center-x="-1.278938"
       inkscape:transform-center-y="-0.83883826" />
    <path
       sodipodi:type="star"
       style="fill:#68003b;fill-opacity:1;stroke:none"
       id="path3028"
       sodipodi:sides="5"
       sodipodi:cx="333.63488"
       sodipodi:cy="134.88659"
       sodipodi:r1="21.35657"
       sodipodi:r2="10.678286"
       sodipodi:arg1="1.120135"
       sodipodi:arg2="1.7484535"
       inkscape:flatsided="false"
       inkscape:rounded="0"
       inkscape:randomized="0"
       d="m 342.93697,154.11091 -11.18919,-8.7141 -13.5218,4.27724 4.82995,-13.33437 -8.24636,-11.53825 14.17427,0.47301 8.42527,-11.40827 3.93023,13.6267 13.45346,4.48756 -11.74525,7.94875 z"
       transform="translate(0,662.59837)"
       inkscape:transform-center-x="-1.1662986"
       inkscape:transform-center-y="-0.89805628" />
    <path
       sodipodi:type="star"
       style="fill:#68003b;fill-opacity:1;stroke:none"
       id="path3030"
       sodipodi:sides="5"
       sodipodi:cx="359.68072"
       sodipodi:cy="178.29634"
       sodipodi:r1="6.2013917"
       sodipodi:r2="3.1006962"
       sodipodi:arg1="0.92729522"
       sodipodi:arg2="1.5556137"
       inkscape:flatsided="false"
       inkscape:rounded="0"
       inkscape:randomized="0"
       d="m 363.40156,183.25745 -3.67376,-1.86077 -3.61557,1.97145 0.63444,-4.06896 -2.99223,-2.8294 4.06587,-0.65399 1.76627,-3.72012 1.87839,3.66478 4.08386,0.53024 -2.90496,2.91895 z"
       transform="translate(0,662.59837)"
       inkscape:transform-center-x="0.029093795"
       inkscape:transform-center-y="-0.56444212" />
    <path
       sodipodi:type="star"
       style="fill:#68003b;fill-opacity:1;stroke:none"
       id="path3032"
       sodipodi:sides="5"
       sodipodi:cx="280.92305"
       sodipodi:cy="208.06302"
       sodipodi:r1="15.01198"
       sodipodi:r2="7.5059908"
       sodipodi:arg1="0.90250691"
       sodipodi:arg2="1.5308254"
       inkscape:flatsided="false"
       inkscape:rounded="0"
       inkscape:randomized="0"
       d="m 290.22515,219.84566 -9.00214,-4.28265 -8.6314,4.98786 1.29122,-9.88496 -7.41098,-6.66762 9.80017,-1.82659 4.05116,-9.10867 4.76561,8.75606 9.91474,1.03816 -6.85486,7.23813 z"
       transform="translate(0,662.59837)"
       inkscape:transform-center-x="0.18537386"
       inkscape:transform-center-y="-1.2560705" />
    <path
       sodipodi:type="star"
       style="fill:#68003b;fill-opacity:1;stroke:none"
       id="path3034"
       sodipodi:sides="5"
       sodipodi:cx="194.7237"
       sodipodi:cy="204.34218"
       sodipodi:r1="13.271558"
       sodipodi:r2="6.6357796"
       sodipodi:arg1="0.9179497"
       sodipodi:arg2="1.5462682"
       inkscape:flatsided="false"
       inkscape:rounded="0"
       inkscape:randomized="0"
       d="m 202.7855,214.88454 -7.89906,-3.90858 -7.6979,4.29122 1.27634,-8.72027 -6.45997,-5.99507 8.68788,-1.48084 3.70541,-7.99639 4.09307,7.80506 8.75005,1.05304 -6.15823,6.30464 z"
       transform="translate(0,662.59837)"
       inkscape:transform-center-x="0.10058301"
       inkscape:transform-center-y="-1.1712797" />
  </g>
</svg>
